<mxfile host="app.diagrams.net" agent="Mozilla/5.0 (Windows NT 10.0; Win64; x64) AppleWebKit/537.36 (KHTML, like Gecko) Chrome/131.0.0.0 Safari/537.36 OPR/116.0.0.0" version="26.0.14">
  <diagram id="cqEMore73iMGaMKe4hjl" name="Página-2">
    <mxGraphModel dx="2125" dy="1083" grid="1" gridSize="10" guides="1" tooltips="1" connect="1" arrows="1" fold="1" page="1" pageScale="1" pageWidth="1169" pageHeight="827" math="0" shadow="0">
      <root>
        <mxCell id="0" />
        <mxCell id="1" parent="0" />
        <mxCell id="ptmKDjwa7S4XIhD0g70d-3" value="USUARIO" style="whiteSpace=wrap;html=1;align=center;" parent="1" vertex="1">
          <mxGeometry x="130" y="434" width="100" height="40" as="geometry" />
        </mxCell>
        <mxCell id="ptmKDjwa7S4XIhD0g70d-4" value="Id" style="ellipse;whiteSpace=wrap;html=1;align=center;fontStyle=4;" parent="1" vertex="1">
          <mxGeometry x="10" y="384" width="100" height="40" as="geometry" />
        </mxCell>
        <mxCell id="ptmKDjwa7S4XIhD0g70d-5" value="verificado" style="ellipse;whiteSpace=wrap;html=1;align=center;fontStyle=1" parent="1" vertex="1">
          <mxGeometry x="130" y="244" width="100" height="40" as="geometry" />
        </mxCell>
        <mxCell id="ptmKDjwa7S4XIhD0g70d-7" value="password" style="ellipse;whiteSpace=wrap;html=1;align=center;" parent="1" vertex="1">
          <mxGeometry y="490" width="100" height="40" as="geometry" />
        </mxCell>
        <mxCell id="ptmKDjwa7S4XIhD0g70d-8" value="email" style="ellipse;whiteSpace=wrap;html=1;align=center;" parent="1" vertex="1">
          <mxGeometry x="250" y="384" width="100" height="40" as="geometry" />
        </mxCell>
        <mxCell id="ptmKDjwa7S4XIhD0g70d-9" value="fecha_registro" style="ellipse;whiteSpace=wrap;html=1;align=center;" parent="1" vertex="1">
          <mxGeometry x="260" y="540" width="100" height="40" as="geometry" />
        </mxCell>
        <mxCell id="ptmKDjwa7S4XIhD0g70d-10" value="rol" style="ellipse;whiteSpace=wrap;html=1;align=center;" parent="1" vertex="1">
          <mxGeometry y="324" width="100" height="40" as="geometry" />
        </mxCell>
        <mxCell id="ptmKDjwa7S4XIhD0g70d-11" value="apellido" style="ellipse;whiteSpace=wrap;html=1;align=center;" parent="1" vertex="1">
          <mxGeometry x="190" y="284" width="100" height="40" as="geometry" />
        </mxCell>
        <mxCell id="ptmKDjwa7S4XIhD0g70d-12" value="fecha nacimiento" style="ellipse;whiteSpace=wrap;html=1;align=center;" parent="1" vertex="1">
          <mxGeometry x="260" y="324" width="100" height="40" as="geometry" />
        </mxCell>
        <mxCell id="ptmKDjwa7S4XIhD0g70d-13" value="" style="endArrow=none;html=1;rounded=0;exitX=1;exitY=0.5;exitDx=0;exitDy=0;entryX=0;entryY=0;entryDx=0;entryDy=0;" parent="1" source="ptmKDjwa7S4XIhD0g70d-4" target="ptmKDjwa7S4XIhD0g70d-3" edge="1">
          <mxGeometry relative="1" as="geometry">
            <mxPoint x="120" y="414" as="sourcePoint" />
            <mxPoint x="280" y="414" as="targetPoint" />
          </mxGeometry>
        </mxCell>
        <mxCell id="ptmKDjwa7S4XIhD0g70d-14" value="" style="endArrow=none;html=1;rounded=0;exitX=0;exitY=1;exitDx=0;exitDy=0;entryX=0.75;entryY=0;entryDx=0;entryDy=0;" parent="1" source="ptmKDjwa7S4XIhD0g70d-12" target="ptmKDjwa7S4XIhD0g70d-3" edge="1">
          <mxGeometry relative="1" as="geometry">
            <mxPoint x="120" y="364" as="sourcePoint" />
            <mxPoint x="165" y="444" as="targetPoint" />
          </mxGeometry>
        </mxCell>
        <mxCell id="ptmKDjwa7S4XIhD0g70d-15" value="" style="endArrow=none;html=1;rounded=0;exitX=1;exitY=0;exitDx=0;exitDy=0;entryX=0;entryY=1;entryDx=0;entryDy=0;" parent="1" source="ptmKDjwa7S4XIhD0g70d-7" target="ptmKDjwa7S4XIhD0g70d-3" edge="1">
          <mxGeometry relative="1" as="geometry">
            <mxPoint x="130" y="374" as="sourcePoint" />
            <mxPoint x="175" y="454" as="targetPoint" />
          </mxGeometry>
        </mxCell>
        <mxCell id="ptmKDjwa7S4XIhD0g70d-16" value="" style="endArrow=none;html=1;rounded=0;exitX=0.5;exitY=1;exitDx=0;exitDy=0;entryX=0.5;entryY=0;entryDx=0;entryDy=0;" parent="1" source="ptmKDjwa7S4XIhD0g70d-5" target="ptmKDjwa7S4XIhD0g70d-3" edge="1">
          <mxGeometry relative="1" as="geometry">
            <mxPoint x="140" y="384" as="sourcePoint" />
            <mxPoint x="185" y="464" as="targetPoint" />
          </mxGeometry>
        </mxCell>
        <mxCell id="ptmKDjwa7S4XIhD0g70d-17" value="" style="endArrow=none;html=1;rounded=0;exitX=0;exitY=0.5;exitDx=0;exitDy=0;entryX=1;entryY=0;entryDx=0;entryDy=0;" parent="1" source="ptmKDjwa7S4XIhD0g70d-8" target="ptmKDjwa7S4XIhD0g70d-3" edge="1">
          <mxGeometry relative="1" as="geometry">
            <mxPoint x="150" y="394" as="sourcePoint" />
            <mxPoint x="195" y="474" as="targetPoint" />
          </mxGeometry>
        </mxCell>
        <mxCell id="ptmKDjwa7S4XIhD0g70d-18" value="" style="endArrow=none;html=1;rounded=0;exitX=1;exitY=1;exitDx=0;exitDy=0;entryX=0.25;entryY=0;entryDx=0;entryDy=0;" parent="1" source="ptmKDjwa7S4XIhD0g70d-10" target="ptmKDjwa7S4XIhD0g70d-3" edge="1">
          <mxGeometry relative="1" as="geometry">
            <mxPoint x="160" y="404" as="sourcePoint" />
            <mxPoint x="205" y="484" as="targetPoint" />
          </mxGeometry>
        </mxCell>
        <mxCell id="ptmKDjwa7S4XIhD0g70d-19" value="" style="endArrow=none;html=1;rounded=0;exitX=0.5;exitY=1;exitDx=0;exitDy=0;entryX=0.5;entryY=0;entryDx=0;entryDy=0;" parent="1" source="ptmKDjwa7S4XIhD0g70d-11" target="ptmKDjwa7S4XIhD0g70d-3" edge="1">
          <mxGeometry relative="1" as="geometry">
            <mxPoint x="170" y="414" as="sourcePoint" />
            <mxPoint x="215" y="494" as="targetPoint" />
          </mxGeometry>
        </mxCell>
        <mxCell id="ptmKDjwa7S4XIhD0g70d-20" value="" style="endArrow=none;html=1;rounded=0;exitX=1;exitY=1;exitDx=0;exitDy=0;entryX=0;entryY=0;entryDx=0;entryDy=0;" parent="1" source="ptmKDjwa7S4XIhD0g70d-3" target="ptmKDjwa7S4XIhD0g70d-9" edge="1">
          <mxGeometry relative="1" as="geometry">
            <mxPoint x="180" y="424" as="sourcePoint" />
            <mxPoint x="225" y="504" as="targetPoint" />
          </mxGeometry>
        </mxCell>
        <mxCell id="ptmKDjwa7S4XIhD0g70d-22" value="POST" style="whiteSpace=wrap;html=1;align=center;fontStyle=1" parent="1" vertex="1">
          <mxGeometry x="-290" y="434" width="100" height="40" as="geometry" />
        </mxCell>
        <mxCell id="ptmKDjwa7S4XIhD0g70d-23" value="Id" style="ellipse;whiteSpace=wrap;html=1;align=center;fontStyle=4;" parent="1" vertex="1">
          <mxGeometry x="-420" y="384" width="100" height="40" as="geometry" />
        </mxCell>
        <mxCell id="ptmKDjwa7S4XIhD0g70d-26" value="contenido" style="ellipse;whiteSpace=wrap;html=1;align=center;" parent="1" vertex="1">
          <mxGeometry x="-360" y="334" width="100" height="40" as="geometry" />
        </mxCell>
        <mxCell id="ptmKDjwa7S4XIhD0g70d-27" value="usuario_id" style="ellipse;whiteSpace=wrap;html=1;align=center;" parent="1" vertex="1">
          <mxGeometry x="-170" y="384" width="100" height="40" as="geometry" />
        </mxCell>
        <mxCell id="ptmKDjwa7S4XIhD0g70d-28" value="fecha_publicación" style="ellipse;whiteSpace=wrap;html=1;align=center;" parent="1" vertex="1">
          <mxGeometry x="-220" y="334" width="100" height="40" as="geometry" />
        </mxCell>
        <mxCell id="ptmKDjwa7S4XIhD0g70d-29" value="" style="endArrow=none;html=1;rounded=0;exitX=0.5;exitY=1;exitDx=0;exitDy=0;entryX=0.25;entryY=0;entryDx=0;entryDy=0;" parent="1" source="ptmKDjwa7S4XIhD0g70d-26" target="ptmKDjwa7S4XIhD0g70d-22" edge="1">
          <mxGeometry relative="1" as="geometry">
            <mxPoint x="-110" y="394" as="sourcePoint" />
            <mxPoint x="50" y="394" as="targetPoint" />
          </mxGeometry>
        </mxCell>
        <mxCell id="ptmKDjwa7S4XIhD0g70d-30" value="" style="endArrow=none;html=1;rounded=0;exitX=1;exitY=0.5;exitDx=0;exitDy=0;entryX=0;entryY=0;entryDx=0;entryDy=0;" parent="1" source="ptmKDjwa7S4XIhD0g70d-23" target="ptmKDjwa7S4XIhD0g70d-22" edge="1">
          <mxGeometry relative="1" as="geometry">
            <mxPoint x="-265" y="378" as="sourcePoint" />
            <mxPoint x="-255" y="444" as="targetPoint" />
          </mxGeometry>
        </mxCell>
        <mxCell id="ptmKDjwa7S4XIhD0g70d-31" value="" style="endArrow=none;html=1;rounded=0;exitX=0;exitY=0.5;exitDx=0;exitDy=0;entryX=1;entryY=0;entryDx=0;entryDy=0;" parent="1" source="ptmKDjwa7S4XIhD0g70d-27" target="ptmKDjwa7S4XIhD0g70d-22" edge="1">
          <mxGeometry relative="1" as="geometry">
            <mxPoint x="-255" y="388" as="sourcePoint" />
            <mxPoint x="-245" y="454" as="targetPoint" />
          </mxGeometry>
        </mxCell>
        <mxCell id="ptmKDjwa7S4XIhD0g70d-32" value="" style="endArrow=none;html=1;rounded=0;exitX=0.5;exitY=1;exitDx=0;exitDy=0;entryX=0.75;entryY=0;entryDx=0;entryDy=0;" parent="1" source="ptmKDjwa7S4XIhD0g70d-28" target="ptmKDjwa7S4XIhD0g70d-22" edge="1">
          <mxGeometry relative="1" as="geometry">
            <mxPoint x="-245" y="398" as="sourcePoint" />
            <mxPoint x="-235" y="464" as="targetPoint" />
          </mxGeometry>
        </mxCell>
        <mxCell id="ptmKDjwa7S4XIhD0g70d-33" value="COMENTARIOS" style="whiteSpace=wrap;html=1;align=center;" parent="1" vertex="1">
          <mxGeometry x="535" y="434" width="100" height="40" as="geometry" />
        </mxCell>
        <mxCell id="ptmKDjwa7S4XIhD0g70d-34" value="contenido" style="ellipse;whiteSpace=wrap;html=1;align=center;" parent="1" vertex="1">
          <mxGeometry x="475" y="300" width="100" height="40" as="geometry" />
        </mxCell>
        <mxCell id="ptmKDjwa7S4XIhD0g70d-35" value="fecha_comentario" style="ellipse;whiteSpace=wrap;html=1;align=center;" parent="1" vertex="1">
          <mxGeometry x="610" y="334" width="100" height="40" as="geometry" />
        </mxCell>
        <mxCell id="ptmKDjwa7S4XIhD0g70d-36" value="post_id" style="ellipse;whiteSpace=wrap;html=1;align=center;" parent="1" vertex="1">
          <mxGeometry x="650" y="384" width="100" height="40" as="geometry" />
        </mxCell>
        <mxCell id="ptmKDjwa7S4XIhD0g70d-37" value="Id" style="ellipse;whiteSpace=wrap;html=1;align=center;fontStyle=4;" parent="1" vertex="1">
          <mxGeometry x="435" y="349" width="100" height="40" as="geometry" />
        </mxCell>
        <mxCell id="ptmKDjwa7S4XIhD0g70d-38" value="usuario_id" style="ellipse;whiteSpace=wrap;html=1;align=center;fontStyle=4;" parent="1" vertex="1">
          <mxGeometry x="610" y="260" width="100" height="40" as="geometry" />
        </mxCell>
        <mxCell id="ptmKDjwa7S4XIhD0g70d-39" value="" style="endArrow=none;html=1;rounded=0;exitX=0;exitY=0;exitDx=0;exitDy=0;entryX=1;entryY=1;entryDx=0;entryDy=0;" parent="1" source="ptmKDjwa7S4XIhD0g70d-33" target="ptmKDjwa7S4XIhD0g70d-37" edge="1">
          <mxGeometry relative="1" as="geometry">
            <mxPoint x="300" y="414" as="sourcePoint" />
            <mxPoint x="240" y="444" as="targetPoint" />
          </mxGeometry>
        </mxCell>
        <mxCell id="ptmKDjwa7S4XIhD0g70d-41" value="" style="endArrow=none;html=1;rounded=0;exitX=0.25;exitY=0;exitDx=0;exitDy=0;entryX=1;entryY=1;entryDx=0;entryDy=0;" parent="1" source="ptmKDjwa7S4XIhD0g70d-33" target="ptmKDjwa7S4XIhD0g70d-34" edge="1">
          <mxGeometry relative="1" as="geometry">
            <mxPoint x="545" y="444" as="sourcePoint" />
            <mxPoint x="530" y="414" as="targetPoint" />
          </mxGeometry>
        </mxCell>
        <mxCell id="ptmKDjwa7S4XIhD0g70d-42" value="" style="endArrow=none;html=1;rounded=0;exitX=0.557;exitY=0.002;exitDx=0;exitDy=0;entryX=0;entryY=0.5;entryDx=0;entryDy=0;exitPerimeter=0;" parent="1" source="ptmKDjwa7S4XIhD0g70d-33" target="ptmKDjwa7S4XIhD0g70d-38" edge="1">
          <mxGeometry relative="1" as="geometry">
            <mxPoint x="555" y="454" as="sourcePoint" />
            <mxPoint x="540" y="424" as="targetPoint" />
          </mxGeometry>
        </mxCell>
        <mxCell id="ptmKDjwa7S4XIhD0g70d-43" value="" style="endArrow=none;html=1;rounded=0;exitX=0.75;exitY=0;exitDx=0;exitDy=0;entryX=0;entryY=1;entryDx=0;entryDy=0;" parent="1" source="ptmKDjwa7S4XIhD0g70d-33" target="ptmKDjwa7S4XIhD0g70d-35" edge="1">
          <mxGeometry relative="1" as="geometry">
            <mxPoint x="565" y="464" as="sourcePoint" />
            <mxPoint x="550" y="434" as="targetPoint" />
          </mxGeometry>
        </mxCell>
        <mxCell id="ptmKDjwa7S4XIhD0g70d-44" value="" style="endArrow=none;html=1;rounded=0;exitX=1;exitY=0;exitDx=0;exitDy=0;entryX=0;entryY=1;entryDx=0;entryDy=0;" parent="1" source="ptmKDjwa7S4XIhD0g70d-33" target="ptmKDjwa7S4XIhD0g70d-36" edge="1">
          <mxGeometry relative="1" as="geometry">
            <mxPoint x="575" y="474" as="sourcePoint" />
            <mxPoint x="560" y="444" as="targetPoint" />
          </mxGeometry>
        </mxCell>
        <mxCell id="ptmKDjwa7S4XIhD0g70d-45" value="publica" style="shape=rhombus;perimeter=rhombusPerimeter;whiteSpace=wrap;html=1;align=center;" parent="1" vertex="1">
          <mxGeometry x="-90" y="424" width="120" height="60" as="geometry" />
        </mxCell>
        <mxCell id="ptmKDjwa7S4XIhD0g70d-46" value="" style="endArrow=none;html=1;rounded=0;exitX=1;exitY=0.5;exitDx=0;exitDy=0;entryX=0;entryY=0.5;entryDx=0;entryDy=0;" parent="1" source="ptmKDjwa7S4XIhD0g70d-45" target="ptmKDjwa7S4XIhD0g70d-3" edge="1">
          <mxGeometry relative="1" as="geometry">
            <mxPoint x="90" y="414" as="sourcePoint" />
            <mxPoint x="140" y="444" as="targetPoint" />
          </mxGeometry>
        </mxCell>
        <mxCell id="ptmKDjwa7S4XIhD0g70d-47" value="" style="endArrow=none;html=1;rounded=0;exitX=1;exitY=0.5;exitDx=0;exitDy=0;entryX=0;entryY=0.5;entryDx=0;entryDy=0;" parent="1" source="ptmKDjwa7S4XIhD0g70d-22" target="ptmKDjwa7S4XIhD0g70d-45" edge="1">
          <mxGeometry relative="1" as="geometry">
            <mxPoint x="40" y="464" as="sourcePoint" />
            <mxPoint x="140" y="464" as="targetPoint" />
          </mxGeometry>
        </mxCell>
        <mxCell id="ptmKDjwa7S4XIhD0g70d-48" value="AMISTADES" style="whiteSpace=wrap;html=1;align=center;" parent="1" vertex="1">
          <mxGeometry x="130" y="640" width="100" height="40" as="geometry" />
        </mxCell>
        <mxCell id="ptmKDjwa7S4XIhD0g70d-53" value="Id" style="ellipse;whiteSpace=wrap;html=1;align=center;fontStyle=4;" parent="1" vertex="1">
          <mxGeometry x="50" y="730" width="100" height="40" as="geometry" />
        </mxCell>
        <mxCell id="ptmKDjwa7S4XIhD0g70d-54" value="usuari_a_id" style="ellipse;whiteSpace=wrap;html=1;align=center;fontStyle=4;" parent="1" vertex="1">
          <mxGeometry x="130" y="770" width="100" height="40" as="geometry" />
        </mxCell>
        <mxCell id="ptmKDjwa7S4XIhD0g70d-55" value="usuario_b_id" style="ellipse;whiteSpace=wrap;html=1;align=center;fontStyle=4;" parent="1" vertex="1">
          <mxGeometry x="210" y="730" width="100" height="40" as="geometry" />
        </mxCell>
        <mxCell id="ptmKDjwa7S4XIhD0g70d-56" value="fecha_solicitud" style="ellipse;whiteSpace=wrap;html=1;align=center;" parent="1" vertex="1">
          <mxGeometry x="10" y="680" width="100" height="40" as="geometry" />
        </mxCell>
        <mxCell id="ptmKDjwa7S4XIhD0g70d-57" value="estado" style="ellipse;whiteSpace=wrap;html=1;align=center;" parent="1" vertex="1">
          <mxGeometry x="250" y="680" width="100" height="40" as="geometry" />
        </mxCell>
        <mxCell id="ptmKDjwa7S4XIhD0g70d-58" value="" style="endArrow=none;html=1;rounded=0;exitX=1;exitY=0;exitDx=0;exitDy=0;entryX=0.25;entryY=1;entryDx=0;entryDy=0;" parent="1" source="ptmKDjwa7S4XIhD0g70d-53" target="ptmKDjwa7S4XIhD0g70d-48" edge="1">
          <mxGeometry relative="1" as="geometry">
            <mxPoint x="130" y="736" as="sourcePoint" />
            <mxPoint x="185" y="700" as="targetPoint" />
          </mxGeometry>
        </mxCell>
        <mxCell id="ptmKDjwa7S4XIhD0g70d-59" value="" style="endArrow=none;html=1;rounded=0;exitX=0.75;exitY=1;exitDx=0;exitDy=0;entryX=0;entryY=0;entryDx=0;entryDy=0;" parent="1" source="ptmKDjwa7S4XIhD0g70d-48" target="ptmKDjwa7S4XIhD0g70d-55" edge="1">
          <mxGeometry relative="1" as="geometry">
            <mxPoint x="145" y="746" as="sourcePoint" />
            <mxPoint x="165" y="690" as="targetPoint" />
          </mxGeometry>
        </mxCell>
        <mxCell id="ptmKDjwa7S4XIhD0g70d-60" value="" style="endArrow=none;html=1;rounded=0;exitX=0.5;exitY=0;exitDx=0;exitDy=0;entryX=0.5;entryY=1;entryDx=0;entryDy=0;" parent="1" source="ptmKDjwa7S4XIhD0g70d-54" target="ptmKDjwa7S4XIhD0g70d-48" edge="1">
          <mxGeometry relative="1" as="geometry">
            <mxPoint x="155" y="756" as="sourcePoint" />
            <mxPoint x="175" y="700" as="targetPoint" />
          </mxGeometry>
        </mxCell>
        <mxCell id="ptmKDjwa7S4XIhD0g70d-61" value="" style="endArrow=none;html=1;rounded=0;exitX=0;exitY=1;exitDx=0;exitDy=0;entryX=1;entryY=0.5;entryDx=0;entryDy=0;" parent="1" source="ptmKDjwa7S4XIhD0g70d-48" target="ptmKDjwa7S4XIhD0g70d-56" edge="1">
          <mxGeometry relative="1" as="geometry">
            <mxPoint x="165" y="766" as="sourcePoint" />
            <mxPoint x="185" y="710" as="targetPoint" />
          </mxGeometry>
        </mxCell>
        <mxCell id="ptmKDjwa7S4XIhD0g70d-62" value="" style="endArrow=none;html=1;rounded=0;exitX=0;exitY=0.5;exitDx=0;exitDy=0;entryX=1;entryY=1;entryDx=0;entryDy=0;" parent="1" source="ptmKDjwa7S4XIhD0g70d-57" target="ptmKDjwa7S4XIhD0g70d-48" edge="1">
          <mxGeometry relative="1" as="geometry">
            <mxPoint x="140" y="690" as="sourcePoint" />
            <mxPoint x="120" y="710" as="targetPoint" />
          </mxGeometry>
        </mxCell>
        <mxCell id="ptmKDjwa7S4XIhD0g70d-63" value="FOTO_PERFIL" style="whiteSpace=wrap;html=1;align=center;" parent="1" vertex="1">
          <mxGeometry x="535" y="640" width="100" height="40" as="geometry" />
        </mxCell>
        <mxCell id="ptmKDjwa7S4XIhD0g70d-64" value="fecha_subida" style="ellipse;whiteSpace=wrap;html=1;align=center;" parent="1" vertex="1">
          <mxGeometry x="435" y="690" width="100" height="40" as="geometry" />
        </mxCell>
        <mxCell id="ptmKDjwa7S4XIhD0g70d-65" value="url_imagen" style="ellipse;whiteSpace=wrap;html=1;align=center;" parent="1" vertex="1">
          <mxGeometry x="635" y="690" width="100" height="40" as="geometry" />
        </mxCell>
        <mxCell id="ptmKDjwa7S4XIhD0g70d-66" value="Id" style="ellipse;whiteSpace=wrap;html=1;align=center;fontStyle=4;" parent="1" vertex="1">
          <mxGeometry x="475" y="750" width="100" height="40" as="geometry" />
        </mxCell>
        <mxCell id="ptmKDjwa7S4XIhD0g70d-67" value="usuario_id" style="ellipse;whiteSpace=wrap;html=1;align=center;fontStyle=4;" parent="1" vertex="1">
          <mxGeometry x="595" y="750" width="100" height="40" as="geometry" />
        </mxCell>
        <mxCell id="ptmKDjwa7S4XIhD0g70d-68" value="" style="endArrow=none;html=1;rounded=0;exitX=0;exitY=1;exitDx=0;exitDy=0;entryX=1;entryY=0;entryDx=0;entryDy=0;" parent="1" source="ptmKDjwa7S4XIhD0g70d-63" target="ptmKDjwa7S4XIhD0g70d-64" edge="1">
          <mxGeometry relative="1" as="geometry">
            <mxPoint x="200" y="690" as="sourcePoint" />
            <mxPoint x="220" y="746" as="targetPoint" />
          </mxGeometry>
        </mxCell>
        <mxCell id="ptmKDjwa7S4XIhD0g70d-69" value="" style="endArrow=none;html=1;rounded=0;exitX=0.25;exitY=1;exitDx=0;exitDy=0;entryX=0.5;entryY=0;entryDx=0;entryDy=0;" parent="1" source="ptmKDjwa7S4XIhD0g70d-63" target="ptmKDjwa7S4XIhD0g70d-66" edge="1">
          <mxGeometry relative="1" as="geometry">
            <mxPoint x="545" y="680" as="sourcePoint" />
            <mxPoint x="530" y="706" as="targetPoint" />
          </mxGeometry>
        </mxCell>
        <mxCell id="ptmKDjwa7S4XIhD0g70d-70" value="" style="endArrow=none;html=1;rounded=0;exitX=0.75;exitY=1;exitDx=0;exitDy=0;entryX=0.5;entryY=0;entryDx=0;entryDy=0;" parent="1" source="ptmKDjwa7S4XIhD0g70d-63" target="ptmKDjwa7S4XIhD0g70d-67" edge="1">
          <mxGeometry relative="1" as="geometry">
            <mxPoint x="570" y="680" as="sourcePoint" />
            <mxPoint x="545" y="760" as="targetPoint" />
          </mxGeometry>
        </mxCell>
        <mxCell id="ptmKDjwa7S4XIhD0g70d-71" value="" style="endArrow=none;html=1;rounded=0;exitX=1;exitY=1;exitDx=0;exitDy=0;entryX=0;entryY=0;entryDx=0;entryDy=0;" parent="1" source="ptmKDjwa7S4XIhD0g70d-63" target="ptmKDjwa7S4XIhD0g70d-65" edge="1">
          <mxGeometry relative="1" as="geometry">
            <mxPoint x="620" y="680" as="sourcePoint" />
            <mxPoint x="655" y="760" as="targetPoint" />
          </mxGeometry>
        </mxCell>
        <mxCell id="D0SlZmfwbvpqy0weGBUF-1" value="realiza" style="shape=rhombus;perimeter=rhombusPerimeter;whiteSpace=wrap;html=1;align=center;" parent="1" vertex="1">
          <mxGeometry x="320" y="424" width="120" height="60" as="geometry" />
        </mxCell>
        <mxCell id="D0SlZmfwbvpqy0weGBUF-2" value="" style="endArrow=none;html=1;rounded=0;exitX=0;exitY=0.5;exitDx=0;exitDy=0;entryX=1;entryY=0.5;entryDx=0;entryDy=0;" parent="1" source="D0SlZmfwbvpqy0weGBUF-1" target="ptmKDjwa7S4XIhD0g70d-3" edge="1">
          <mxGeometry relative="1" as="geometry">
            <mxPoint x="300" y="414" as="sourcePoint" />
            <mxPoint x="240" y="444" as="targetPoint" />
          </mxGeometry>
        </mxCell>
        <mxCell id="D0SlZmfwbvpqy0weGBUF-3" value="" style="endArrow=none;html=1;rounded=0;exitX=0;exitY=0.5;exitDx=0;exitDy=0;entryX=1;entryY=0.5;entryDx=0;entryDy=0;" parent="1" source="ptmKDjwa7S4XIhD0g70d-33" target="D0SlZmfwbvpqy0weGBUF-1" edge="1">
          <mxGeometry relative="1" as="geometry">
            <mxPoint x="350" y="464" as="sourcePoint" />
            <mxPoint x="240" y="464" as="targetPoint" />
          </mxGeometry>
        </mxCell>
        <mxCell id="D0SlZmfwbvpqy0weGBUF-4" value="acepta" style="shape=rhombus;perimeter=rhombusPerimeter;whiteSpace=wrap;html=1;align=center;" parent="1" vertex="1">
          <mxGeometry x="120" y="530" width="120" height="60" as="geometry" />
        </mxCell>
        <mxCell id="D0SlZmfwbvpqy0weGBUF-5" value="" style="endArrow=none;html=1;rounded=0;exitX=0.5;exitY=0;exitDx=0;exitDy=0;entryX=0.5;entryY=1;entryDx=0;entryDy=0;" parent="1" source="D0SlZmfwbvpqy0weGBUF-4" target="ptmKDjwa7S4XIhD0g70d-3" edge="1">
          <mxGeometry relative="1" as="geometry">
            <mxPoint x="545" y="464" as="sourcePoint" />
            <mxPoint x="450" y="464" as="targetPoint" />
          </mxGeometry>
        </mxCell>
        <mxCell id="D0SlZmfwbvpqy0weGBUF-6" value="" style="endArrow=none;html=1;rounded=0;exitX=0.5;exitY=0;exitDx=0;exitDy=0;entryX=0.5;entryY=1;entryDx=0;entryDy=0;" parent="1" source="ptmKDjwa7S4XIhD0g70d-48" target="D0SlZmfwbvpqy0weGBUF-4" edge="1">
          <mxGeometry relative="1" as="geometry">
            <mxPoint x="190" y="530" as="sourcePoint" />
            <mxPoint x="190" y="484" as="targetPoint" />
          </mxGeometry>
        </mxCell>
        <mxCell id="D0SlZmfwbvpqy0weGBUF-7" value="tiene" style="shape=rhombus;perimeter=rhombusPerimeter;whiteSpace=wrap;html=1;align=center;" parent="1" vertex="1">
          <mxGeometry x="120" y="170" width="120" height="60" as="geometry" />
        </mxCell>
        <mxCell id="D0SlZmfwbvpqy0weGBUF-8" value="" style="endArrow=none;html=1;rounded=0;exitX=1;exitY=0.5;exitDx=0;exitDy=0;" parent="1" source="D0SlZmfwbvpqy0weGBUF-7" edge="1">
          <mxGeometry relative="1" as="geometry">
            <mxPoint x="130" y="334" as="sourcePoint" />
            <mxPoint x="590" y="200" as="targetPoint" />
          </mxGeometry>
        </mxCell>
        <mxCell id="D0SlZmfwbvpqy0weGBUF-9" value="" style="endArrow=none;html=1;rounded=0;exitX=0.549;exitY=-0.002;exitDx=0;exitDy=0;exitPerimeter=0;" parent="1" source="ptmKDjwa7S4XIhD0g70d-33" edge="1">
          <mxGeometry relative="1" as="geometry">
            <mxPoint x="140" y="344" as="sourcePoint" />
            <mxPoint x="590" y="200" as="targetPoint" />
          </mxGeometry>
        </mxCell>
        <mxCell id="D0SlZmfwbvpqy0weGBUF-10" value="" style="endArrow=none;html=1;rounded=0;exitX=0;exitY=0.5;exitDx=0;exitDy=0;" parent="1" source="D0SlZmfwbvpqy0weGBUF-7" edge="1">
          <mxGeometry relative="1" as="geometry">
            <mxPoint x="150" y="354" as="sourcePoint" />
            <mxPoint x="-240" y="200" as="targetPoint" />
          </mxGeometry>
        </mxCell>
        <mxCell id="D0SlZmfwbvpqy0weGBUF-11" value="" style="endArrow=none;html=1;rounded=0;exitX=0.5;exitY=0;exitDx=0;exitDy=0;" parent="1" source="ptmKDjwa7S4XIhD0g70d-22" edge="1">
          <mxGeometry relative="1" as="geometry">
            <mxPoint x="160" y="364" as="sourcePoint" />
            <mxPoint x="-240" y="200" as="targetPoint" />
          </mxGeometry>
        </mxCell>
        <mxCell id="D0SlZmfwbvpqy0weGBUF-12" value="" style="endArrow=none;html=1;rounded=0;exitX=0.25;exitY=0;exitDx=0;exitDy=0;" parent="1" source="ptmKDjwa7S4XIhD0g70d-63" edge="1">
          <mxGeometry relative="1" as="geometry">
            <mxPoint x="170" y="374" as="sourcePoint" />
            <mxPoint x="560" y="520" as="targetPoint" />
          </mxGeometry>
        </mxCell>
        <mxCell id="D0SlZmfwbvpqy0weGBUF-13" value="" style="endArrow=none;html=1;rounded=0;exitX=0;exitY=0.5;exitDx=0;exitDy=0;" parent="1" source="D0SlZmfwbvpqy0weGBUF-16" edge="1">
          <mxGeometry relative="1" as="geometry">
            <mxPoint x="420" y="520" as="sourcePoint" />
            <mxPoint x="280" y="520" as="targetPoint" />
          </mxGeometry>
        </mxCell>
        <mxCell id="D0SlZmfwbvpqy0weGBUF-14" value="" style="endArrow=none;html=1;rounded=0;" parent="1" edge="1">
          <mxGeometry relative="1" as="geometry">
            <mxPoint x="280" y="520" as="sourcePoint" />
            <mxPoint x="280" y="470" as="targetPoint" />
          </mxGeometry>
        </mxCell>
        <mxCell id="D0SlZmfwbvpqy0weGBUF-15" value="" style="endArrow=none;html=1;rounded=0;" parent="1" edge="1">
          <mxGeometry relative="1" as="geometry">
            <mxPoint x="280" y="470" as="sourcePoint" />
            <mxPoint x="229" y="470" as="targetPoint" />
          </mxGeometry>
        </mxCell>
        <mxCell id="D0SlZmfwbvpqy0weGBUF-16" value="asigna" style="shape=rhombus;perimeter=rhombusPerimeter;whiteSpace=wrap;html=1;align=center;" parent="1" vertex="1">
          <mxGeometry x="440" y="490" width="120" height="60" as="geometry" />
        </mxCell>
        <mxCell id="D0SlZmfwbvpqy0weGBUF-17" value="(1,N)" style="text;html=1;align=center;verticalAlign=middle;resizable=0;points=[];autosize=1;strokeColor=none;fillColor=none;" parent="1" vertex="1">
          <mxGeometry x="80" y="424" width="50" height="30" as="geometry" />
        </mxCell>
        <mxCell id="D0SlZmfwbvpqy0weGBUF-19" value="(1,1)" style="text;html=1;align=center;verticalAlign=middle;resizable=0;points=[];autosize=1;strokeColor=none;fillColor=none;" parent="1" vertex="1">
          <mxGeometry x="-195" y="424" width="50" height="30" as="geometry" />
        </mxCell>
        <mxCell id="D0SlZmfwbvpqy0weGBUF-20" value="&lt;b&gt;1:N&lt;/b&gt;" style="text;html=1;align=center;verticalAlign=middle;resizable=0;points=[];autosize=1;strokeColor=none;fillColor=none;" parent="1" vertex="1">
          <mxGeometry x="-50" y="399" width="40" height="30" as="geometry" />
        </mxCell>
        <mxCell id="D0SlZmfwbvpqy0weGBUF-21" value="(1,N)" style="text;html=1;align=center;verticalAlign=middle;resizable=0;points=[];autosize=1;strokeColor=none;fillColor=none;" parent="1" vertex="1">
          <mxGeometry x="230" y="424" width="50" height="30" as="geometry" />
        </mxCell>
        <mxCell id="D0SlZmfwbvpqy0weGBUF-27" value="(1,1)" style="text;html=1;align=center;verticalAlign=middle;resizable=0;points=[];autosize=1;strokeColor=none;fillColor=none;" parent="1" vertex="1">
          <mxGeometry x="485" y="424" width="50" height="30" as="geometry" />
        </mxCell>
        <mxCell id="D0SlZmfwbvpqy0weGBUF-28" value="&lt;b&gt;1:N&lt;/b&gt;" style="text;html=1;align=center;verticalAlign=middle;resizable=0;points=[];autosize=1;strokeColor=none;fillColor=none;" parent="1" vertex="1">
          <mxGeometry x="360" y="394" width="40" height="30" as="geometry" />
        </mxCell>
        <mxCell id="D0SlZmfwbvpqy0weGBUF-29" value="(1,1)" style="text;html=1;align=center;verticalAlign=middle;resizable=0;points=[];autosize=1;strokeColor=none;fillColor=none;" parent="1" vertex="1">
          <mxGeometry x="275" y="470" width="50" height="30" as="geometry" />
        </mxCell>
        <mxCell id="D0SlZmfwbvpqy0weGBUF-30" value="(1,1)" style="text;html=1;align=center;verticalAlign=middle;resizable=0;points=[];autosize=1;strokeColor=none;fillColor=none;" parent="1" vertex="1">
          <mxGeometry x="560" y="610" width="50" height="30" as="geometry" />
        </mxCell>
        <mxCell id="D0SlZmfwbvpqy0weGBUF-31" value="&lt;b&gt;1:1&lt;/b&gt;" style="text;html=1;align=center;verticalAlign=middle;resizable=0;points=[];autosize=1;strokeColor=none;fillColor=none;" parent="1" vertex="1">
          <mxGeometry x="480" y="460" width="40" height="30" as="geometry" />
        </mxCell>
        <mxCell id="D0SlZmfwbvpqy0weGBUF-33" value="(1,N)" style="text;html=1;align=center;verticalAlign=middle;resizable=0;points=[];autosize=1;strokeColor=none;fillColor=none;" parent="1" vertex="1">
          <mxGeometry x="180" y="474" width="50" height="30" as="geometry" />
        </mxCell>
        <mxCell id="D0SlZmfwbvpqy0weGBUF-34" value="(N,M)" style="text;html=1;align=center;verticalAlign=middle;resizable=0;points=[];autosize=1;strokeColor=none;fillColor=none;" parent="1" vertex="1">
          <mxGeometry x="180" y="610" width="50" height="30" as="geometry" />
        </mxCell>
        <mxCell id="D0SlZmfwbvpqy0weGBUF-35" value="&lt;b&gt;N:M&lt;/b&gt;" style="text;html=1;align=center;verticalAlign=middle;resizable=0;points=[];autosize=1;strokeColor=none;fillColor=none;" parent="1" vertex="1">
          <mxGeometry x="75" y="545" width="50" height="30" as="geometry" />
        </mxCell>
        <mxCell id="D0SlZmfwbvpqy0weGBUF-36" value="(1,N)" style="text;html=1;align=center;verticalAlign=middle;resizable=0;points=[];autosize=1;strokeColor=none;fillColor=none;" parent="1" vertex="1">
          <mxGeometry x="-240" y="170" width="50" height="30" as="geometry" />
        </mxCell>
        <mxCell id="D0SlZmfwbvpqy0weGBUF-37" value="(1,1)" style="text;html=1;align=center;verticalAlign=middle;resizable=0;points=[];autosize=1;strokeColor=none;fillColor=none;" parent="1" vertex="1">
          <mxGeometry x="545" y="160" width="50" height="30" as="geometry" />
        </mxCell>
        <mxCell id="D0SlZmfwbvpqy0weGBUF-38" value="&lt;b&gt;1:N&lt;/b&gt;" style="text;html=1;align=center;verticalAlign=middle;resizable=0;points=[];autosize=1;strokeColor=none;fillColor=none;" parent="1" vertex="1">
          <mxGeometry x="160" y="138" width="40" height="30" as="geometry" />
        </mxCell>
        <mxCell id="TCALM5pxs05RK1giKt6n-4" value="likes" style="ellipse;whiteSpace=wrap;html=1;align=center;" vertex="1" parent="1">
          <mxGeometry x="-290" y="520" width="100" height="40" as="geometry" />
        </mxCell>
        <mxCell id="TCALM5pxs05RK1giKt6n-5" value="dislikes" style="ellipse;whiteSpace=wrap;html=1;align=center;" vertex="1" parent="1">
          <mxGeometry x="-400" y="490" width="100" height="40" as="geometry" />
        </mxCell>
        <mxCell id="TCALM5pxs05RK1giKt6n-8" value="" style="endArrow=none;html=1;rounded=0;exitX=1;exitY=0;exitDx=0;exitDy=0;entryX=0;entryY=1;entryDx=0;entryDy=0;" edge="1" parent="1" source="TCALM5pxs05RK1giKt6n-5" target="ptmKDjwa7S4XIhD0g70d-22">
          <mxGeometry relative="1" as="geometry">
            <mxPoint x="-310" y="414" as="sourcePoint" />
            <mxPoint x="-280" y="444" as="targetPoint" />
          </mxGeometry>
        </mxCell>
        <mxCell id="TCALM5pxs05RK1giKt6n-9" value="" style="endArrow=none;html=1;rounded=0;exitX=0.5;exitY=1;exitDx=0;exitDy=0;entryX=0.5;entryY=0;entryDx=0;entryDy=0;" edge="1" parent="1" source="ptmKDjwa7S4XIhD0g70d-22" target="TCALM5pxs05RK1giKt6n-4">
          <mxGeometry relative="1" as="geometry">
            <mxPoint x="-300" y="424" as="sourcePoint" />
            <mxPoint x="-270" y="454" as="targetPoint" />
          </mxGeometry>
        </mxCell>
        <mxCell id="TCALM5pxs05RK1giKt6n-10" value="nombre" style="ellipse;whiteSpace=wrap;html=1;align=center;" vertex="1" parent="1">
          <mxGeometry x="80" y="294" width="100" height="40" as="geometry" />
        </mxCell>
        <mxCell id="TCALM5pxs05RK1giKt6n-11" value="" style="endArrow=none;html=1;rounded=0;exitX=0.5;exitY=1;exitDx=0;exitDy=0;" edge="1" parent="1" source="TCALM5pxs05RK1giKt6n-10">
          <mxGeometry relative="1" as="geometry">
            <mxPoint x="190" y="294" as="sourcePoint" />
            <mxPoint x="180" y="430" as="targetPoint" />
          </mxGeometry>
        </mxCell>
        <mxCell id="TCALM5pxs05RK1giKt6n-12" value="REACCIONES" style="whiteSpace=wrap;html=1;align=center;" vertex="1" parent="1">
          <mxGeometry x="-684" y="434" width="100" height="40" as="geometry" />
        </mxCell>
        <mxCell id="TCALM5pxs05RK1giKt6n-14" value="tiene" style="shape=rhombus;perimeter=rhombusPerimeter;whiteSpace=wrap;html=1;align=center;" vertex="1" parent="1">
          <mxGeometry x="-510" y="424" width="120" height="60" as="geometry" />
        </mxCell>
        <mxCell id="TCALM5pxs05RK1giKt6n-15" value="" style="endArrow=none;html=1;rounded=0;exitX=1;exitY=0.5;exitDx=0;exitDy=0;" edge="1" parent="1" source="TCALM5pxs05RK1giKt6n-14">
          <mxGeometry relative="1" as="geometry">
            <mxPoint x="-180" y="464" as="sourcePoint" />
            <mxPoint x="-290" y="454" as="targetPoint" />
          </mxGeometry>
        </mxCell>
        <mxCell id="TCALM5pxs05RK1giKt6n-16" value="" style="endArrow=none;html=1;rounded=0;entryX=1;entryY=0.5;entryDx=0;entryDy=0;" edge="1" parent="1" target="TCALM5pxs05RK1giKt6n-12">
          <mxGeometry relative="1" as="geometry">
            <mxPoint x="-510" y="454" as="sourcePoint" />
            <mxPoint x="-280" y="464" as="targetPoint" />
          </mxGeometry>
        </mxCell>
        <mxCell id="TCALM5pxs05RK1giKt6n-17" value="tipo" style="ellipse;whiteSpace=wrap;html=1;align=center;" vertex="1" parent="1">
          <mxGeometry x="-840" y="464" width="100" height="40" as="geometry" />
        </mxCell>
        <mxCell id="TCALM5pxs05RK1giKt6n-18" value="&lt;u&gt;id&lt;/u&gt;" style="ellipse;whiteSpace=wrap;html=1;align=center;" vertex="1" parent="1">
          <mxGeometry x="-840" y="410" width="100" height="40" as="geometry" />
        </mxCell>
        <mxCell id="TCALM5pxs05RK1giKt6n-19" value="post_id" style="ellipse;whiteSpace=wrap;html=1;align=center;" vertex="1" parent="1">
          <mxGeometry x="-740" y="510" width="100" height="40" as="geometry" />
        </mxCell>
        <mxCell id="TCALM5pxs05RK1giKt6n-21" value="usuario_id" style="ellipse;whiteSpace=wrap;html=1;align=center;" vertex="1" parent="1">
          <mxGeometry x="-740" y="349" width="100" height="40" as="geometry" />
        </mxCell>
        <mxCell id="TCALM5pxs05RK1giKt6n-22" value="" style="endArrow=none;html=1;rounded=0;entryX=0.5;entryY=1;entryDx=0;entryDy=0;exitX=0;exitY=0;exitDx=0;exitDy=0;" edge="1" parent="1" source="TCALM5pxs05RK1giKt6n-12" target="TCALM5pxs05RK1giKt6n-21">
          <mxGeometry relative="1" as="geometry">
            <mxPoint x="-500" y="464" as="sourcePoint" />
            <mxPoint x="-574" y="464" as="targetPoint" />
          </mxGeometry>
        </mxCell>
        <mxCell id="TCALM5pxs05RK1giKt6n-23" value="" style="endArrow=none;html=1;rounded=0;entryX=0.5;entryY=0;entryDx=0;entryDy=0;exitX=0;exitY=1;exitDx=0;exitDy=0;" edge="1" parent="1" source="TCALM5pxs05RK1giKt6n-12" target="TCALM5pxs05RK1giKt6n-19">
          <mxGeometry relative="1" as="geometry">
            <mxPoint x="-674" y="444" as="sourcePoint" />
            <mxPoint x="-680" y="399" as="targetPoint" />
          </mxGeometry>
        </mxCell>
        <mxCell id="TCALM5pxs05RK1giKt6n-24" value="" style="endArrow=none;html=1;rounded=0;entryX=1;entryY=0.5;entryDx=0;entryDy=0;exitX=0;exitY=0.5;exitDx=0;exitDy=0;" edge="1" parent="1" source="TCALM5pxs05RK1giKt6n-12" target="TCALM5pxs05RK1giKt6n-18">
          <mxGeometry relative="1" as="geometry">
            <mxPoint x="-664" y="454" as="sourcePoint" />
            <mxPoint x="-670" y="409" as="targetPoint" />
          </mxGeometry>
        </mxCell>
        <mxCell id="TCALM5pxs05RK1giKt6n-25" value="" style="endArrow=none;html=1;rounded=0;entryX=1;entryY=0.5;entryDx=0;entryDy=0;exitX=0;exitY=0.5;exitDx=0;exitDy=0;" edge="1" parent="1" source="TCALM5pxs05RK1giKt6n-12" target="TCALM5pxs05RK1giKt6n-17">
          <mxGeometry relative="1" as="geometry">
            <mxPoint x="-654" y="464" as="sourcePoint" />
            <mxPoint x="-660" y="419" as="targetPoint" />
          </mxGeometry>
        </mxCell>
        <mxCell id="TCALM5pxs05RK1giKt6n-26" value="(1,N)" style="text;html=1;align=center;verticalAlign=middle;resizable=0;points=[];autosize=1;strokeColor=none;fillColor=none;" vertex="1" parent="1">
          <mxGeometry x="-335" y="424" width="50" height="30" as="geometry" />
        </mxCell>
        <mxCell id="TCALM5pxs05RK1giKt6n-27" value="(1,1)" style="text;html=1;align=center;verticalAlign=middle;resizable=0;points=[];autosize=1;strokeColor=none;fillColor=none;" vertex="1" parent="1">
          <mxGeometry x="-590" y="424" width="50" height="30" as="geometry" />
        </mxCell>
        <mxCell id="TCALM5pxs05RK1giKt6n-28" value="&lt;b&gt;1:N&lt;/b&gt;" style="text;html=1;align=center;verticalAlign=middle;resizable=0;points=[];autosize=1;strokeColor=none;fillColor=none;" vertex="1" parent="1">
          <mxGeometry x="-470" y="394" width="40" height="30" as="geometry" />
        </mxCell>
        <mxCell id="TCALM5pxs05RK1giKt6n-41" value="FOTO_POST" style="whiteSpace=wrap;html=1;align=center;" vertex="1" parent="1">
          <mxGeometry x="-130" y="654" width="100" height="40" as="geometry" />
        </mxCell>
        <mxCell id="TCALM5pxs05RK1giKt6n-42" value="urllimagen" style="ellipse;whiteSpace=wrap;html=1;align=center;" vertex="1" parent="1">
          <mxGeometry x="-230" y="704" width="100" height="40" as="geometry" />
        </mxCell>
        <mxCell id="TCALM5pxs05RK1giKt6n-44" value="Id" style="ellipse;whiteSpace=wrap;html=1;align=center;fontStyle=4;" vertex="1" parent="1">
          <mxGeometry x="-190" y="764" width="100" height="40" as="geometry" />
        </mxCell>
        <mxCell id="TCALM5pxs05RK1giKt6n-45" value="post_id" style="ellipse;whiteSpace=wrap;html=1;align=center;fontStyle=4;" vertex="1" parent="1">
          <mxGeometry x="-70" y="764" width="100" height="40" as="geometry" />
        </mxCell>
        <mxCell id="TCALM5pxs05RK1giKt6n-46" value="" style="endArrow=none;html=1;rounded=0;exitX=0;exitY=1;exitDx=0;exitDy=0;entryX=1;entryY=0;entryDx=0;entryDy=0;" edge="1" parent="1" source="TCALM5pxs05RK1giKt6n-41" target="TCALM5pxs05RK1giKt6n-42">
          <mxGeometry relative="1" as="geometry">
            <mxPoint x="-465" y="704" as="sourcePoint" />
            <mxPoint x="-445" y="760" as="targetPoint" />
          </mxGeometry>
        </mxCell>
        <mxCell id="TCALM5pxs05RK1giKt6n-47" value="" style="endArrow=none;html=1;rounded=0;exitX=0.25;exitY=1;exitDx=0;exitDy=0;entryX=0.5;entryY=0;entryDx=0;entryDy=0;" edge="1" parent="1" source="TCALM5pxs05RK1giKt6n-41">
          <mxGeometry relative="1" as="geometry">
            <mxPoint x="-120" y="694" as="sourcePoint" />
            <mxPoint x="-140" y="764" as="targetPoint" />
          </mxGeometry>
        </mxCell>
        <mxCell id="TCALM5pxs05RK1giKt6n-48" value="" style="endArrow=none;html=1;rounded=0;exitX=0.75;exitY=1;exitDx=0;exitDy=0;entryX=0.5;entryY=0;entryDx=0;entryDy=0;" edge="1" parent="1" source="TCALM5pxs05RK1giKt6n-41">
          <mxGeometry relative="1" as="geometry">
            <mxPoint x="-95" y="694" as="sourcePoint" />
            <mxPoint x="-20" y="764" as="targetPoint" />
          </mxGeometry>
        </mxCell>
        <mxCell id="TCALM5pxs05RK1giKt6n-50" value="" style="endArrow=none;html=1;rounded=0;exitX=0.25;exitY=0;exitDx=0;exitDy=0;" edge="1" parent="1" source="TCALM5pxs05RK1giKt6n-51">
          <mxGeometry relative="1" as="geometry">
            <mxPoint x="-465" y="388" as="sourcePoint" />
            <mxPoint x="-75" y="534" as="targetPoint" />
          </mxGeometry>
        </mxCell>
        <mxCell id="TCALM5pxs05RK1giKt6n-52" value="(1,1)" style="text;html=1;align=center;verticalAlign=middle;resizable=0;points=[];autosize=1;strokeColor=none;fillColor=none;" vertex="1" parent="1">
          <mxGeometry x="-105" y="624" width="50" height="30" as="geometry" />
        </mxCell>
        <mxCell id="TCALM5pxs05RK1giKt6n-53" value="" style="endArrow=none;html=1;rounded=0;exitX=0.46;exitY=0.967;exitDx=0;exitDy=0;exitPerimeter=0;" edge="1" parent="1" source="TCALM5pxs05RK1giKt6n-52" target="TCALM5pxs05RK1giKt6n-51">
          <mxGeometry relative="1" as="geometry">
            <mxPoint x="-75" y="654" as="sourcePoint" />
            <mxPoint x="-75" y="534" as="targetPoint" />
          </mxGeometry>
        </mxCell>
        <mxCell id="TCALM5pxs05RK1giKt6n-51" value="asigna" style="shape=rhombus;perimeter=rhombusPerimeter;whiteSpace=wrap;html=1;align=center;" vertex="1" parent="1">
          <mxGeometry x="-145" y="520" width="120" height="60" as="geometry" />
        </mxCell>
        <mxCell id="TCALM5pxs05RK1giKt6n-54" value="" style="endArrow=none;html=1;rounded=0;exitX=1.02;exitY=1.1;exitDx=0;exitDy=0;exitPerimeter=0;entryX=0.558;entryY=0.05;entryDx=0;entryDy=0;entryPerimeter=0;" edge="1" parent="1" source="D0SlZmfwbvpqy0weGBUF-17" target="TCALM5pxs05RK1giKt6n-51">
          <mxGeometry relative="1" as="geometry">
            <mxPoint x="-72" y="663" as="sourcePoint" />
            <mxPoint x="-74" y="590" as="targetPoint" />
          </mxGeometry>
        </mxCell>
        <mxCell id="TCALM5pxs05RK1giKt6n-57" value="&lt;b&gt;1:1&lt;/b&gt;" style="text;html=1;align=center;verticalAlign=middle;resizable=0;points=[];autosize=1;strokeColor=none;fillColor=none;" vertex="1" parent="1">
          <mxGeometry x="-105" y="490" width="40" height="30" as="geometry" />
        </mxCell>
        <mxCell id="TCALM5pxs05RK1giKt6n-58" value="(1,1)" style="text;html=1;align=center;verticalAlign=middle;resizable=0;points=[];autosize=1;strokeColor=none;fillColor=none;" vertex="1" parent="1">
          <mxGeometry x="-50" y="505" width="50" height="30" as="geometry" />
        </mxCell>
      </root>
    </mxGraphModel>
  </diagram>
</mxfile>
